<svg width="50" height="50" viewBox="0 0 50 50" fill="none" xmlns="http://www.w3.org/2000/svg">
<circle cx="25" cy="25" r="25" fill="#DBE3F0"/>
<path d="M26.3782 14.8272L25.7031 14.11V15.095V37.1745C25.7031 37.574 25.3837 37.8906 25 37.8906C24.6163 37.8906 24.2969 37.574 24.2969 37.1745V15.0601V14.0721L23.6212 14.793L15.664 23.2826C15.6639 23.2827 15.6638 23.2827 15.6638 23.2828C15.3966 23.5667 14.9538 23.5776 14.6731 23.3071C14.3897 23.0339 14.3785 22.5781 14.6487 22.2911L14.6487 22.2911L23.716 12.6579C24.0759 12.2948 24.5246 12.1094 25 12.1094C25.4777 12.1094 25.9258 12.2965 26.2662 12.6388L35.3513 22.2905L35.6357 22.0228L35.3513 22.2905C35.6215 22.5776 35.6103 23.0334 35.3269 23.3065L35.3267 23.3066C35.1904 23.4382 35.0169 23.5026 34.8438 23.5026C34.6592 23.5026 34.4751 23.4294 34.3365 23.282L34.3364 23.2818L26.3782 14.8272Z" fill="black" stroke="black" stroke-width="0.78125"/>
</svg>
